<svg xmlns="http://www.w3.org/2000/svg" width="32" height="32" viewBox="0 0 64 64"><defs><linearGradient id="svg_50" x1="0" x2="1" y1="0" y2="0"><stop offset="0" stop-color="#48a091" stop-opacity=".996"/><stop offset="1" stop-color="#064c40" stop-opacity=".996"/></linearGradient><linearGradient id="svg_52" x1="1" x2="0" y1="0" y2="1"><stop offset="0" stop-color="#48a091" stop-opacity=".992"/><stop offset="1" stop-color="#064c40" stop-opacity=".992"/></linearGradient></defs><g><title>Layer 1</title><path id="svg_35" fill="url(#svg_52)" stroke="#fff" stroke-opacity="null" stroke-width="0" d="m18.59441,2.33223l-18.31611,29.67053l18.31781,29.66501l6.6626,-10.7888l-11.65844,-18.87622l11.65602,-18.87623l-6.66188,-10.7943l0,0zm26.80704,0l-6.65778,10.79156l11.65606,18.87621l-11.65606,18.87391l6.65778,10.78874l18.32025,-29.66772l-18.32025,-29.66269z" transform="rotate(-90, 32, 32)"/><path id="svg_47" fill="url(#svg_50)" d="m22.75055,37.79973l18.48481,0.00706l-0.59984,0.88653l-17.27806,-0.02117l-0.60692,-0.87242l0,0zm0.12703,-11.7929l18.23781,-0.02117l0.52928,0.90945l-19.30344,0.00706l0.53635,-0.89533zm-1.79985,5.90926l21.82338,-0.02117l-0.02821,0.90945l-21.78106,-0.01411l-0.01411,-0.87416zm21.84145,0.08435c0,6.02076 -4.89886,10.91871 -10.92136,10.91871c-6.0199,0 -10.91785,-4.89883 -10.91785,-10.91871c0,-6.0199 4.89883,-10.91785 10.91785,-10.91785c6.0225,-0.00088 10.92136,4.89795 10.92136,10.91785zm-10.92051,-11.7929c-6.50044,0 -11.79024,5.2898 -11.79024,11.79201c0,6.5031 5.2898,11.7929 11.79024,11.7929c6.50398,0 11.7929,-5.2898 11.7929,-11.7929c0,-6.50221 -5.28891,-11.79201 -11.7929,-11.79201zm3.30867,11.7929c0,6.43368 -1.74307,10.91871 -3.30867,10.91871c-1.56383,0 -3.30687,-4.48503 -3.30687,-10.91871c0,-6.43545 1.74218,-10.91785 3.30687,-10.91785c1.56472,-0.00088 3.30867,4.4824 3.30867,10.91785zm-3.30867,-11.7929c-2.7156,0 -4.18104,6.0761 -4.18104,11.79201c0,5.71766 1.46544,11.7929 4.18104,11.7929c2.71563,0 4.18372,-6.07612 4.18372,-11.7929c-0.00089,-5.71591 -1.46809,-11.79201 -4.18372,-11.79201zm7.7489,11.7929c0,6.02076 -3.47734,10.91871 -7.7489,10.91871c-4.27067,0 -7.74624,-4.89883 -7.74624,-10.91871c0,-6.0199 3.47557,-10.91785 7.74624,-10.91785c4.27155,-0.00088 7.7489,4.89795 7.7489,10.91785zm-7.7489,-11.7929c-4.75212,0 -8.6204,5.2898 -8.6204,11.79201c0,6.5031 3.86828,11.7929 8.6204,11.7929c4.75389,0 8.62131,-5.2898 8.62131,-11.7929c0,-6.50221 -3.86742,-11.79201 -8.62131,-11.79201z" transform="rotate(23, 32, 32)"/></g></svg>